<svg width="63" height="51" viewBox="0 0 63 51" fill="none" xmlns="http://www.w3.org/2000/svg">
<path d="M20.4768 35.0625C31.7876 35.0625 40.9525 27.2133 40.9525 17.5312C40.9525 7.84922 31.7876 0 20.4768 0C9.16592 0 0.00107738 7.84922 0.00107738 17.5312C0.00107738 21.3762 1.44816 24.9322 3.89933 27.8309C3.55479 28.7672 3.0429 29.5939 2.50147 30.2912C2.02896 30.9088 1.5466 31.3869 1.19221 31.7156C1.01502 31.875 0.867357 32.0045 0.768916 32.0842C0.719695 32.124 0.680319 32.1539 0.660631 32.1639L0.640943 32.1838C0.0995182 32.5922 -0.13674 33.3094 0.07983 33.9568C0.2964 34.6043 0.896889 35.0625 1.57613 35.0625C3.72214 35.0625 5.88784 34.5047 7.68931 33.8174C8.59496 33.4688 9.44155 33.0803 10.1799 32.6818C13.202 34.1959 16.7163 35.0625 20.4768 35.0625ZM44.1026 17.5312C44.1026 28.7174 34.3471 37.1443 22.7901 38.1504C25.1822 45.5613 33.1166 51 42.5275 51C46.288 51 49.8023 50.1334 52.8343 48.6193C53.5726 49.0178 54.4093 49.4062 55.315 49.7549C57.1164 50.4422 59.2821 51 61.4282 51C62.1074 51 62.7177 50.5518 62.9245 49.8943C63.1312 49.2369 62.9048 48.5197 62.3535 48.1113L62.3338 48.0914C62.3141 48.0715 62.2747 48.0516 62.2255 48.0117C62.1271 47.932 61.9794 47.8125 61.8022 47.6432C61.4478 47.3145 60.9655 46.8363 60.493 46.2188C59.9515 45.5215 59.4396 44.6848 59.0951 43.7584C61.5463 40.8697 62.9934 37.3137 62.9934 33.4588C62.9934 24.215 54.6357 16.6348 44.0337 15.9773C44.073 16.4854 44.0927 17.0033 44.0927 17.5213L44.1026 17.5312Z" fill="#7B2CBF"/>
</svg>
