<svg width="308" height="207" viewBox="0 0 308 207" fill="none" xmlns="http://www.w3.org/2000/svg">
<g clip-path="url(#clip0_3_156)">
<path d="M54.5293 159.146C54.0941 158.412 52.2113 159.198 51.8651 158.532C51.5202 157.869 53.2696 156.857 54.269 154.548C54.4492 154.131 55.585 151.506 54.7442 150.696C53.1505 149.161 45.8576 155.497 43.3054 153.423C42.7452 152.968 42.354 152.06 40.6588 150.585C39.9844 149.998 39.5766 149.734 39.1819 149.832C38.6219 149.972 38.5776 150.721 37.9771 152.195C37.0765 154.405 36.5439 154.272 36.0192 156.035C35.6297 157.344 35.7187 158.105 35.2603 158.253C34.6117 158.463 34.0148 157.074 33.1928 157.199C32.354 157.326 31.8469 158.942 31.6867 160.152C31.3861 162.424 32.2202 163.922 32.6825 165.498C33.1849 167.211 33.4831 169.815 32.3229 173.502L20.8395 205.857C23.3747 199.218 30.7152 181.018 33.7997 174.255C34.6902 172.303 35.6733 170.323 37.6921 169.541C39.6356 168.789 42.3049 169.238 45.7079 168.418C46.1053 168.322 47.2082 168.042 47.347 167.393C47.4618 166.857 46.8131 166.558 46.9127 166.055C47.0464 165.382 48.3221 165.373 49.8898 164.596C50.9952 164.048 51.6839 163.396 52.2761 162.835C52.4546 162.666 55.1087 160.123 54.5293 159.146H54.5293Z" fill="#F2F2F2"/>
<path d="M9.35024 176.179C8.86448 176.181 8.7069 177.332 8.28014 177.309C7.85492 177.287 7.86339 176.137 7.0181 174.98C6.86566 174.771 5.90503 173.456 5.26488 173.635C4.05153 173.975 5.05689 179.382 3.30288 180.037C2.91796 180.18 2.35922 180.11 1.14628 180.517C0.663746 180.678 0.41608 180.802 0.350573 181.024C0.257632 181.339 0.612667 181.577 1.16268 182.297C1.98752 183.377 1.76834 183.6 2.48235 184.366C3.01239 184.935 3.41157 185.111 3.35207 185.379C3.26791 185.758 2.41425 185.65 2.23809 186.089C2.05835 186.538 2.70542 187.253 3.25322 187.681C4.28123 188.484 5.25746 188.507 6.16431 188.734C7.14982 188.982 8.51416 189.587 9.98902 191.22L22.5555 206.192C20.0285 203.032 13.2141 194.178 10.7847 190.713C10.0834 189.712 9.39517 188.658 9.59406 187.442C9.78553 186.271 10.7762 185.091 11.3557 183.184C11.4234 182.961 11.6039 182.339 11.3256 182.084C11.0955 181.873 10.7614 182.105 10.5436 181.911C10.2515 181.651 10.6155 181.022 10.6863 180.029C10.7363 179.328 10.615 178.802 10.5108 178.349C10.4794 178.213 9.99687 176.177 9.35025 176.179V176.179H9.35024Z" fill="#F2F2F2"/>
<path d="M19.0411 178.354L18.7484 175.742L18.8821 175.544C19.5009 174.628 19.8163 173.734 19.82 172.885C19.8207 172.75 19.8144 172.615 19.808 172.477C19.7828 171.932 19.7513 171.255 20.1045 170.465C20.3026 170.025 20.8589 169.006 21.6952 169.132C21.9204 169.163 22.0907 169.267 22.22 169.388C22.2389 169.358 22.2585 169.327 22.2793 169.294C22.5398 168.897 22.746 168.727 22.9447 168.563C23.0974 168.437 23.2551 168.307 23.5023 167.999C23.6108 167.864 23.6953 167.745 23.7666 167.646C23.9829 167.344 24.2655 166.985 24.7638 166.991C25.2961 167.016 25.5749 167.456 25.7597 167.748C26.0896 168.268 26.2391 168.642 26.3381 168.891C26.3741 168.982 26.4151 169.084 26.4359 169.115C26.6074 169.368 28.002 169.132 28.5274 169.046C29.7075 168.849 30.7287 168.679 31.1494 169.423C31.4509 169.955 31.227 170.659 30.4638 171.571C30.226 171.855 29.9731 172.071 29.7485 172.24C29.9346 172.351 30.1011 172.521 30.1686 172.789C30.3276 173.422 29.7832 174.057 28.5514 174.677C28.2455 174.832 27.8336 175.039 27.2565 175.139C26.9846 175.186 26.7399 175.197 26.5305 175.203C26.5261 175.324 26.4977 175.456 26.4239 175.591C26.2076 175.988 25.7572 176.177 25.0785 176.132C24.3317 176.093 23.7168 175.95 23.1743 175.825C22.7007 175.717 22.2926 175.625 21.9721 175.646C21.378 175.694 20.9201 176.17 20.3827 176.786L19.0411 178.354H19.0411H19.0411Z" fill="#F2F2F2"/>
<path d="M20.3986 162.799L17.9458 163.745L17.7203 163.666C16.6774 163.3 15.7323 163.222 14.9101 163.433C14.7794 163.467 14.6504 163.507 14.519 163.548C13.9983 163.711 13.351 163.913 12.4976 163.772C12.0215 163.692 10.8944 163.412 10.8043 162.571C10.7777 162.346 10.8346 162.155 10.9189 161.999C10.8848 161.988 10.8506 161.977 10.8136 161.965C10.3631 161.814 10.1461 161.658 9.93706 161.507C9.77632 161.391 9.61064 161.272 9.25019 161.111C9.09211 161.04 8.95597 160.988 8.84149 160.945C8.49499 160.812 8.07555 160.63 7.95526 160.146C7.84464 159.625 8.19979 159.244 8.43478 158.991C8.85384 158.54 9.17833 158.3 9.3936 158.141C9.47233 158.084 9.56077 158.018 9.586 157.99C9.78653 157.76 9.20462 156.471 8.98838 155.984C8.49869 154.893 8.07494 153.948 8.68816 153.353C9.12662 152.926 9.8643 152.964 10.9401 153.471C11.275 153.629 11.5478 153.819 11.7683 153.993C11.8285 153.785 11.9509 153.581 12.1925 153.448C12.7648 153.133 13.5166 153.499 14.4294 154.533C14.6571 154.789 14.9617 155.135 15.2045 155.668C15.3186 155.919 15.3916 156.153 15.4509 156.354C15.5691 156.328 15.7032 156.322 15.8525 156.359C16.2917 156.468 16.589 156.855 16.7172 157.523C16.8688 158.256 16.8869 158.887 16.9037 159.443C16.9189 159.929 16.9334 160.347 17.0354 160.651C17.2325 161.214 17.8086 161.536 18.5416 161.899L20.3987 162.799L20.3986 162.799V162.799Z" fill="#F2F2F2"/>
<path d="M19.0411 155.103L18.7484 152.49L18.8821 152.292C19.5009 151.376 19.8163 150.482 19.82 149.633C19.8207 149.498 19.8144 149.363 19.808 149.226C19.7828 148.681 19.7513 148.003 20.1045 147.214C20.3026 146.773 20.8589 145.754 21.6952 145.88C21.9204 145.912 22.0907 146.015 22.22 146.136C22.2389 146.106 22.2585 146.076 22.2793 146.043C22.5398 145.645 22.746 145.475 22.9447 145.311C23.0974 145.185 23.2551 145.055 23.5023 144.747C23.6108 144.612 23.6953 144.494 23.7666 144.394C23.9829 144.093 24.2655 143.733 24.7638 143.739C25.2961 143.765 25.5749 144.205 25.7597 144.496C26.0896 145.016 26.2391 145.391 26.3381 145.639C26.3741 145.73 26.4151 145.832 26.4359 145.864C26.6074 146.116 28.002 145.88 28.5274 145.794C29.7075 145.598 30.7287 145.427 31.1494 146.172C31.4509 146.704 31.227 147.408 30.4638 148.32C30.226 148.604 29.9731 148.819 29.7485 148.988C29.9346 149.099 30.1011 149.27 30.1686 149.537C30.3276 150.17 29.7832 150.805 28.5514 151.426C28.2455 151.581 27.8336 151.788 27.2565 151.887C26.9846 151.934 26.7399 151.945 26.5305 151.952C26.5261 152.073 26.4977 152.204 26.4239 152.339C26.2076 152.736 25.7572 152.926 25.0785 152.88C24.3317 152.841 23.7168 152.698 23.1743 152.574C22.7007 152.465 22.2926 152.373 21.9721 152.394C21.378 152.442 20.9201 152.918 20.3827 153.535L19.0411 155.103H19.0411H19.0411Z" fill="#F2F2F2"/>
<path d="M21.7141 205.814L21.1666 205.471L21.0342 204.839L21.1666 205.471L20.5283 205.544C20.5182 205.485 20.4835 205.349 20.4312 205.136C20.1455 203.968 19.2744 200.413 18.5478 194.814C18.0407 190.906 17.7537 186.888 17.6944 182.871C17.6351 178.846 17.8256 175.8 17.9782 173.351C18.0936 171.505 18.2337 169.746 18.3712 168.033C18.737 163.456 19.082 159.133 18.8253 154.347C18.7685 153.279 18.6493 151.055 17.35 148.688C16.5963 147.316 15.5581 146.097 14.2638 145.068L15.0686 144.056C16.4972 145.194 17.6458 146.544 18.4828 148.068C19.9234 150.691 20.0534 153.115 20.1158 154.279C20.3769 159.15 20.0281 163.514 19.6585 168.135C19.5223 169.842 19.3822 171.593 19.2675 173.432C19.1161 175.858 18.9275 178.878 18.9861 182.85C19.0442 186.82 19.328 190.789 19.8282 194.648C20.546 200.176 21.4044 203.677 21.6863 204.828C21.8365 205.442 21.868 205.571 21.7141 205.814V205.814H21.7141Z" fill="#F2F2F2"/>
<path d="M11.8948 147.12C11.8418 147.12 11.7882 147.119 11.7339 147.115C10.6339 147.056 9.61528 146.397 8.70575 145.159C8.27938 144.576 8.06114 143.911 7.62592 142.585C7.55843 142.381 7.23044 141.344 7.03113 139.917C6.90056 138.985 6.91696 138.595 7.10177 138.251C7.30676 137.867 7.63853 137.6 8.01193 137.419C7.99554 137.296 8.00877 137.168 8.0624 137.038C8.28252 136.5 8.86785 136.57 9.18448 136.604C9.34469 136.625 9.54463 136.651 9.76035 136.64C10.0997 136.623 10.282 136.522 10.5582 136.371C10.8225 136.226 11.1511 136.046 11.6387 135.946C12.5999 135.745 13.4054 136.018 13.6709 136.107C15.068 136.573 15.7568 137.659 16.554 138.917C16.713 139.169 17.2586 140.087 17.6187 141.346C17.8786 142.255 17.842 142.658 17.7638 142.959C17.6048 143.575 17.2296 143.929 16.2765 144.708C15.2812 145.524 14.7817 145.933 14.3528 146.182C13.3543 146.758 12.7273 147.12 11.8948 147.12V147.12H11.8948Z" fill="#F2F2F2"/>
<path d="M300.544 205.227C300.544 205.466 300.35 205.66 300.111 205.66H0V204.794H300.111C300.35 204.794 300.544 204.988 300.544 205.227V205.227Z" fill="#E6E6E6"/>
<path d="M213.906 68.35C213.906 68.35 197.752 70.2929 200.476 57.5202C203.201 44.7476 218.652 21.1557 218.652 21.1557L227.419 26.0726L217.353 49.8659L221.686 53.2844L213.906 68.35H213.906Z" fill="#A0616A"/>
<path d="M266.845 52.8003L264.569 71.5225L207.527 71.2432L218.983 51.3328L266.845 52.8003Z" fill="#7B2CBF"/>
<path d="M232.947 22.1505C236.438 17.2753 236.718 11.4974 233.572 9.2453C230.427 6.99318 225.048 9.11961 221.557 13.9948C218.066 18.87 217.786 24.6479 220.931 26.9C224.076 29.1521 229.456 27.0257 232.947 22.1505Z" fill="#A0616A"/>
<path d="M261.36 124.179V205.431H264.862V124.179H261.36Z" fill="#3F3D56"/>
<path d="M244.55 124.179V205.431H248.052V124.179H244.55Z" fill="#3F3D56"/>
<path d="M150.339 73.0466V205.431H153.842V73.0466H150.339Z" fill="#E6E6E6"/>
<path d="M206.725 124.179V205.431H210.228V124.179H206.725Z" fill="#3F3D56"/>
<path d="M193.323 124.179V205.431H196.825V124.179H193.323Z" fill="#3F3D56"/>
<path d="M258.208 122.428H190.577L177.603 140.83L244.9 144.842L258.208 122.428Z" fill="#3F3D56"/>
<path d="M134.368 59.4664L134.675 46.1208L93.8567 49.2605L93.6479 58.3037L134.368 59.4664Z" fill="#A0616A"/>
<path d="M106.742 47.666L104.79 52.3628L101.986 52.4523C101.986 52.4523 105.269 53.4576 106.181 59.4229L103.487 60.2304C103.487 60.2304 100.9 62.6441 96.0636 62.41L83.0967 61.3253L83.0468 56.8048L92.0089 55.7692C92.0089 55.7692 94.0058 54.4554 84.1203 49.0541C84.1203 49.0541 80.8456 47.0516 83.7908 37.1629C84.1956 35.8038 85.4184 34.8276 86.8362 34.7969C87.6186 34.78 88.3518 35.061 88.6445 36.0329C89.3895 38.5068 88.6357 40.973 90.6831 42.5172C92.7305 44.0615 106.742 47.666 106.742 47.666L106.742 47.666Z" fill="#2F2E41"/>
<path d="M253.147 110.488C253.147 110.488 239.063 134.442 207.194 130.125C199.611 129.097 192.938 124.588 189.137 117.946C181.79 105.108 170.633 82.628 174.25 69.899L120.351 59.612L116.104 46.522L174.437 38.9445C179.597 38.2743 184.651 40.7834 187.236 45.2987L215.652 94.9228L224.123 95.8478L253.147 110.488V110.488Z" fill="#2F2E41"/>
<path d="M135.432 64.9296L134.664 51.6026L94.231 58.016L94.7504 67.0466L135.432 64.9296Z" fill="#A0616A"/>
<path d="M106.946 55.39L105.378 60.2287L102.591 60.5434C102.591 60.5434 105.944 61.2814 107.333 67.1539L104.713 68.1755C104.713 68.1755 102.328 70.7896 97.4886 70.9453L84.4764 70.9073L84.0631 66.4056L92.9128 64.6522C92.9128 64.6522 94.7975 63.1821 84.5095 58.5936C84.5095 58.5936 81.0843 56.861 83.2244 46.7674C83.5185 45.3801 84.6588 44.3087 86.0695 44.1641C86.848 44.0843 87.6015 44.3054 87.9714 45.2506C88.913 47.6565 88.3601 50.1754 90.5251 51.5499C92.6901 52.9244 106.946 55.39 106.946 55.39H106.946Z" fill="#2F2E41"/>
<path d="M257.931 106.229C257.931 106.229 245.82 131.239 213.707 129.5C206.065 129.086 199.052 125.128 194.728 118.813C186.372 106.608 173.443 85.0985 176.024 72.1198L121.472 66.2024L116.186 53.4966L173.72 41.2506C178.809 40.1674 184.049 42.2618 186.989 46.5544L219.305 93.7316L227.823 93.9721L257.931 106.229V106.229Z" fill="#2F2E41"/>
<path d="M221.013 0.621861L218.211 2.7232L232.92 23.0361L235.722 22.3357L221.013 0.621861Z" fill="#3F3D56"/>
<path d="M259.259 45.7292L275.369 45.0288L282.374 76.5489C282.374 76.5489 267.664 131.884 250.153 129.783C250.153 129.783 239.296 121.728 239.296 118.926C239.296 116.124 224.587 109.12 224.587 109.12L221.085 97.212L231.591 81.1018C231.591 81.1018 235.794 68.4937 249.803 61.4893L259.259 45.7292V45.7292Z" fill="#7B2CBF"/>
<path d="M167.15 70.2448H23.9089V73.7471H93.9536V205.431H97.4558V73.7471H167.15V70.2448Z" fill="#E6E6E6"/>
<path d="M267.664 42.9274C278.109 42.9274 286.576 34.4602 286.576 24.0154C286.576 13.5705 278.109 5.10332 267.664 5.10332C257.219 5.10332 248.752 13.5705 248.752 24.0154C248.752 34.4602 257.219 42.9274 267.664 42.9274Z" fill="#A0616A"/>
<path d="M201.723 48.1808L188.514 53.4341L214.43 87.756L223.536 80.7515L201.723 48.1808Z" fill="#E6E6E6"/>
<path d="M253.305 114.023C253.305 114.023 248.402 129.537 237.895 121.78C227.389 114.023 212.285 90.2076 212.285 90.2076L220.384 84.2538L237.895 103.249L242.798 100.714L253.305 114.023Z" fill="#A0616A"/>
<path d="M261.01 59.3879L277.12 69.1942L253.305 121.027L237.895 100.014L261.01 59.3879Z" fill="#7B2CBF"/>
<path d="M218.458 90.5041C221.808 88.5699 222.094 82.7923 219.095 77.5995C216.097 72.4067 210.951 69.7652 207.601 71.6994C204.251 73.6336 203.965 79.4112 206.963 84.604C209.961 89.7968 215.108 92.4384 218.458 90.5041Z" fill="#A0616A"/>
<path d="M269.732 81.2755C274.586 65.3634 279.795 60.3279 285.271 63.4806C289.439 65.8803 290.694 71.3426 288.251 75.4857C282.025 86.0464 269.194 110.243 271.867 126.281C271.867 126.281 276.07 148.695 242.448 148.695C208.827 148.695 176.606 140.99 176.606 140.99L194.117 138.188L233.94 141.033C243.038 141.683 250.706 133.898 249.491 124.857C249.451 124.559 249.403 124.257 249.348 123.952C247.351 112.972 269.732 81.2755 269.732 81.2755V81.2755Z" fill="#3F3D56"/>
<path d="M260.576 16.1755C259.031 20.5013 262.426 24.9931 267.009 24.6876L267.118 24.6803C270.199 28.5315 270.284 33.9793 267.325 37.9248C267.082 43.0101 267.879 48.0916 269.666 52.8586L274.689 66.2521L282.421 62.6437L286.09 72.4378L307.679 61.3162L294.595 31.8766L290.602 15.9048C287.761 4.54166 276.17 -2.29803 264.85 0.708933L256.165 3.01593C249.303 4.83853 245.354 12.0224 247.492 18.7924V18.7924L260.576 16.1755" fill="#2F2E41"/>
</g>
<defs>
<clipPath id="clip0_3_156">
<rect width="307.679" height="206.192" fill="white"/>
</clipPath>
</defs>
</svg>
