<svg width="75" height="62" viewBox="0 0 75 62" fill="none" xmlns="http://www.w3.org/2000/svg">
<g filter="url(#filter0_d_14_348)">
<path d="M40.85 13.5C40.85 20.9566 34.8514 27 27.45 27C20.0486 27 14.05 20.9566 14.05 13.5C14.05 6.04336 20.0486 0 27.45 0C34.8514 0 40.85 6.04336 40.85 13.5ZM4 50.8676C4 40.4789 12.3541 32.0625 22.6658 32.0625H32.2342C42.5459 32.0625 50.9 40.4789 50.9 50.8676C50.9 52.5973 49.5077 54 47.7908 54H7.10922C5.39234 54 4 52.5973 4 50.8676ZM67.7861 54H53.3497C53.915 53.0086 54.25 51.859 54.25 50.625V49.7812C54.25 43.3793 51.413 37.6313 46.9428 33.7711C47.1941 33.7605 47.4348 33.75 47.6861 33.75H54.1139C63.4416 33.75 71 41.3648 71 50.7621C71 52.5551 69.5553 54 67.7861 54ZM49.225 27C45.9797 27 43.0484 25.6711 40.9233 23.5301C42.9856 20.7246 44.2 17.2547 44.2 13.5C44.2 10.6734 43.5091 8.00508 42.2842 5.66367C44.2314 4.2293 46.6287 3.375 49.225 3.375C55.7052 3.375 60.95 8.65898 60.95 15.1875C60.95 21.716 55.7052 27 49.225 27Z" fill="#7B2CBF"/>
</g>
<defs>
<filter id="filter0_d_14_348" x="0" y="0" width="75" height="62" filterUnits="userSpaceOnUse" color-interpolation-filters="sRGB">
<feFlood flood-opacity="0" result="BackgroundImageFix"/>
<feColorMatrix in="SourceAlpha" type="matrix" values="0 0 0 0 0 0 0 0 0 0 0 0 0 0 0 0 0 0 127 0" result="hardAlpha"/>
<feOffset dy="4"/>
<feGaussianBlur stdDeviation="2"/>
<feComposite in2="hardAlpha" operator="out"/>
<feColorMatrix type="matrix" values="0 0 0 0 0 0 0 0 0 0 0 0 0 0 0 0 0 0 0.25 0"/>
<feBlend mode="normal" in2="BackgroundImageFix" result="effect1_dropShadow_14_348"/>
<feBlend mode="normal" in="SourceGraphic" in2="effect1_dropShadow_14_348" result="shape"/>
</filter>
</defs>
</svg>
