<svg width="125" height="925" viewBox="0 0 125 925" fill="none" xmlns="http://www.w3.org/2000/svg">
<rect width="125" height="925" rx="25" fill="#240046"/>
<circle cx="62.5" cy="125.5" r="43.5" fill="#FCFCFF"/>
<g clip-path="url(#clip0_14_332)">
<path d="M67.6609 158.84C64.74 158.077 62.5634 156.692 61.1406 154.689C60.2779 153.475 58.427 149.678 58.4133 149.095C58.4069 148.831 58.1861 148.164 57.922 147.613C57.5157 146.764 57.1511 146.507 55.5519 145.943C52.8569 144.992 50.382 143.356 48.2466 141.113C45.7865 138.53 44.2056 135.814 43.1808 132.409C39.6047 120.529 46.0206 107.839 57.1996 104.683C60.2927 103.81 65.1799 104.024 68.1772 105.164C74.3653 107.517 79.0962 113.172 80.7225 120.158C81.4045 123.087 81.2808 128.216 80.4512 131.403C80.0744 132.85 79.5214 134.475 79.2221 135.014L78.6781 135.993L80.1076 139.628L81.537 143.262L81.5354 146.385C81.5337 149.309 81.4763 149.644 80.6299 151.658C79.6207 154.059 77.5081 156.56 75.5516 157.671C73.3374 158.929 69.9337 159.433 67.6608 158.84H67.6609ZM72.1052 157.055C74.0767 156.59 75.4442 155.773 76.9489 154.161C78.199 152.822 79.2275 151.148 78.8051 151.139C78.4165 151.131 67.2591 156.645 67.2505 156.849C67.2291 157.36 70.2661 157.489 72.1052 157.055V157.055ZM72.3745 152.442C76.2382 150.539 79.5498 148.85 79.7335 148.688C80.1023 148.363 80.2018 145.493 79.8441 145.493C79.6305 145.493 63.3695 153.394 62.8555 153.748C62.5709 153.944 64.5373 155.891 65.0266 155.898C65.2041 155.9 68.5107 154.345 72.3745 152.442V152.442ZM69.1727 148.743C73.1809 146.769 77.2153 144.766 78.1382 144.293L79.8161 143.434L79.3934 142.307C79.161 141.687 78.8769 141.076 78.7622 140.948C78.5659 140.728 61.2435 149.101 60.7179 149.669C60.4496 149.959 61.2936 152.333 61.665 152.333C61.7861 152.333 65.1645 150.718 69.1727 148.743V148.743ZM65.9728 145.098C67.1118 144.516 68.0449 143.932 68.0465 143.8C68.0482 143.668 67.007 140.916 65.7329 137.686L63.4164 131.812H62.0736C60.2898 131.812 58.5781 130.868 57.7078 129.404C57.333 128.774 57.0966 128.054 57.1826 127.804C57.4424 127.051 58.2788 127.294 58.7987 128.273C59.295 129.208 61.0493 130.313 62.0317 130.31C63.0304 130.307 64.9001 129.001 65.4283 127.938C65.8441 127.101 65.9115 126.551 65.7828 125.046C65.636 123.329 65.6645 123.187 66.1564 123.187C66.9011 123.187 67.3136 124.214 67.2989 126.032C67.2846 127.806 66.7422 129.16 65.5662 130.355L64.7475 131.187L67.1304 137.149C68.4409 140.427 69.648 143.111 69.8127 143.112C70.0764 143.113 77.9297 139.333 78.1489 139.099C78.1959 139.048 77.9855 138.464 77.6813 137.801C76.9769 136.264 76.9867 135.908 77.7747 134.393C79.7874 130.524 80.2837 124.065 78.9214 119.47C77.2863 113.954 74.0759 109.891 69.4895 107.533C64.0488 104.735 57.5091 105.11 52.483 108.508C46.0082 112.886 42.5544 121.609 44.0964 129.69C45.1889 135.415 48.8447 140.688 53.414 143.128C54.6727 143.801 56.2849 144.514 56.9967 144.714C58.1612 145.041 58.3655 145.231 59.0351 146.608L59.7793 148.138L61.8407 147.148C62.9744 146.603 64.8339 145.681 65.9728 145.098V145.098ZM39.0528 107.987C36.4081 105.612 35.8093 104.701 36.6556 104.34C37.1498 104.129 37.1708 104.144 40.352 106.963C42.0979 108.51 42.6636 109.181 42.6048 109.636C42.4622 110.741 41.754 110.412 39.0528 107.987V107.987ZM50.7555 101.997C50.155 101.115 47.9721 95.1572 48.1065 94.7675C48.1878 94.5317 48.4749 94.3388 48.7446 94.3388C49.1142 94.3388 49.5842 95.2171 50.6528 97.9052C51.4326 99.8668 52.0011 101.674 51.916 101.92C51.7283 102.465 51.1018 102.506 50.7555 101.997V101.997ZM62.504 95.6677C62.6582 91.5743 62.8409 90.8357 63.6169 91.1672C63.9512 91.3099 64.0298 91.813 64.0067 93.6603C63.9907 94.9331 63.9005 96.7775 63.8063 97.7589C63.6532 99.3522 63.566 99.5542 62.9926 99.6444L62.3504 99.7454L62.504 95.6677Z" fill="url(#paint0_linear_14_332)"/>
</g>
<defs>
<linearGradient id="paint0_linear_14_332" x1="36.8307" y1="91.3374" x2="80.6735" y2="159.413" gradientUnits="userSpaceOnUse">
<stop stop-color="#3C096C"/>
<stop offset="1" stop-color="#9D4EDD" stop-opacity="0.540984"/>
</linearGradient>
<clipPath id="clip0_14_332">
<rect width="49.3558" height="69.4327" fill="white" transform="translate(34.0577 90.3654)"/>
</clipPath>
</defs>
</svg>
