<svg width="125" height="925" viewBox="0 0 125 925" fill="none" xmlns="http://www.w3.org/2000/svg">
<rect width="125" height="925" rx="25" fill="#240046"/>
<circle cx="62.5" cy="125.5" r="43.5" fill="#FCFCFF"/>
<g clip-path="url(#clip0_3_204)">
<path d="M67.6609 158.84C64.74 158.077 62.5634 156.692 61.1406 154.689C60.2779 153.475 58.427 149.678 58.4133 149.095C58.4069 148.831 58.1861 148.164 57.922 147.613C57.5157 146.764 57.1511 146.507 55.5519 145.943C52.8569 144.992 50.382 143.356 48.2466 141.113C45.7865 138.53 44.2056 135.814 43.1808 132.409C39.6047 120.529 46.0206 107.839 57.1996 104.683C60.2927 103.81 65.1799 104.024 68.1772 105.164C74.3653 107.517 79.0962 113.172 80.7225 120.158C81.4045 123.087 81.2808 128.216 80.4512 131.403C80.0744 132.85 79.5214 134.475 79.2221 135.014L78.6781 135.993L80.1076 139.628L81.537 143.262L81.5354 146.385C81.5337 149.309 81.4763 149.644 80.6299 151.658C79.6207 154.059 77.5081 156.56 75.5516 157.671C73.3374 158.929 69.9337 159.433 67.6608 158.84H67.6609ZM72.1052 157.055C74.0767 156.59 75.4442 155.773 76.9489 154.161C78.199 152.822 79.2275 151.148 78.8051 151.139C78.4165 151.131 67.2591 156.645 67.2505 156.849C67.2291 157.36 70.2661 157.489 72.1052 157.055V157.055ZM72.3745 152.442C76.2382 150.539 79.5498 148.85 79.7335 148.688C80.1023 148.363 80.2018 145.493 79.8441 145.493C79.6305 145.493 63.3695 153.394 62.8555 153.748C62.5709 153.944 64.5373 155.891 65.0266 155.898C65.2041 155.9 68.5107 154.345 72.3745 152.442V152.442ZM69.1727 148.743C73.1809 146.769 77.2153 144.766 78.1382 144.293L79.8161 143.434L79.3934 142.307C79.161 141.687 78.8769 141.076 78.7622 140.948C78.5659 140.728 61.2435 149.101 60.7179 149.669C60.4496 149.959 61.2936 152.333 61.665 152.333C61.7861 152.333 65.1645 150.718 69.1727 148.743V148.743ZM65.9728 145.098C67.1118 144.516 68.0449 143.932 68.0465 143.8C68.0482 143.668 67.007 140.916 65.7329 137.686L63.4164 131.812H62.0736C60.2898 131.812 58.5781 130.868 57.7078 129.404C57.333 128.774 57.0966 128.054 57.1826 127.804C57.4424 127.051 58.2788 127.294 58.7987 128.273C59.295 129.208 61.0493 130.313 62.0317 130.31C63.0304 130.307 64.9001 129.001 65.4283 127.938C65.8441 127.101 65.9115 126.551 65.7828 125.046C65.636 123.329 65.6645 123.187 66.1564 123.187C66.9011 123.187 67.3136 124.214 67.2989 126.032C67.2846 127.806 66.7422 129.16 65.5662 130.355L64.7475 131.187L67.1304 137.149C68.4409 140.427 69.648 143.111 69.8127 143.112C70.0764 143.113 77.9297 139.333 78.1489 139.099C78.1959 139.048 77.9855 138.464 77.6813 137.801C76.9769 136.264 76.9867 135.908 77.7747 134.393C79.7874 130.524 80.2837 124.065 78.9214 119.47C77.2863 113.954 74.0759 109.891 69.4895 107.533C64.0488 104.735 57.5091 105.11 52.483 108.508C46.0082 112.886 42.5544 121.609 44.0964 129.69C45.1889 135.415 48.8447 140.688 53.414 143.128C54.6727 143.801 56.2849 144.514 56.9967 144.714C58.1612 145.041 58.3655 145.231 59.0351 146.608L59.7793 148.138L61.8407 147.148C62.9744 146.603 64.8339 145.681 65.9728 145.098V145.098ZM39.0528 107.987C36.4081 105.612 35.8093 104.701 36.6556 104.34C37.1498 104.129 37.1708 104.144 40.352 106.963C42.0979 108.51 42.6636 109.181 42.6048 109.636C42.4622 110.741 41.754 110.412 39.0528 107.987V107.987ZM50.7555 101.997C50.155 101.115 47.9721 95.1572 48.1065 94.7675C48.1878 94.5317 48.4749 94.3388 48.7446 94.3388C49.1142 94.3388 49.5842 95.2171 50.6528 97.9052C51.4326 99.8668 52.0011 101.674 51.916 101.92C51.7283 102.465 51.1018 102.506 50.7555 101.997V101.997ZM62.504 95.6677C62.6582 91.5743 62.8409 90.8357 63.6169 91.1672C63.9512 91.3099 64.0298 91.813 64.0067 93.6603C63.9907 94.9331 63.9005 96.7775 63.8063 97.7589C63.6532 99.3522 63.566 99.5542 62.9926 99.6444L62.3504 99.7454L62.504 95.6677Z" fill="url(#paint0_linear_3_204)"/>
</g>
<rect width="125" height="925" rx="25" fill="#240046"/>
<circle cx="62.5" cy="125.5" r="43.5" fill="#FCFCFF"/>
<g clip-path="url(#clip1_3_204)">
<path d="M67.6609 158.84C64.74 158.077 62.5634 156.692 61.1406 154.689C60.2779 153.475 58.427 149.678 58.4133 149.095C58.4069 148.831 58.1861 148.164 57.922 147.613C57.5157 146.764 57.1511 146.507 55.5519 145.943C52.8569 144.992 50.382 143.356 48.2466 141.113C45.7865 138.53 44.2056 135.814 43.1808 132.409C39.6047 120.529 46.0206 107.839 57.1996 104.683C60.2927 103.81 65.1799 104.024 68.1772 105.164C74.3653 107.517 79.0962 113.172 80.7225 120.158C81.4045 123.087 81.2808 128.216 80.4512 131.403C80.0744 132.85 79.5214 134.475 79.2221 135.014L78.6781 135.993L80.1076 139.628L81.537 143.262L81.5354 146.385C81.5337 149.309 81.4763 149.644 80.6299 151.658C79.6207 154.059 77.5081 156.56 75.5516 157.671C73.3374 158.929 69.9337 159.433 67.6608 158.84H67.6609ZM72.1052 157.055C74.0767 156.59 75.4442 155.773 76.9489 154.161C78.199 152.822 79.2275 151.148 78.8051 151.139C78.4165 151.131 67.2591 156.645 67.2505 156.849C67.2291 157.36 70.2661 157.489 72.1052 157.055V157.055ZM72.3745 152.442C76.2382 150.539 79.5498 148.85 79.7335 148.688C80.1023 148.363 80.2018 145.493 79.8441 145.493C79.6305 145.493 63.3695 153.394 62.8555 153.748C62.5709 153.944 64.5373 155.891 65.0266 155.898C65.2041 155.9 68.5107 154.345 72.3745 152.442V152.442ZM69.1727 148.743C73.1809 146.769 77.2153 144.766 78.1382 144.293L79.8161 143.434L79.3934 142.307C79.161 141.687 78.8769 141.076 78.7622 140.948C78.5659 140.728 61.2435 149.101 60.7179 149.669C60.4496 149.959 61.2936 152.333 61.665 152.333C61.7861 152.333 65.1645 150.718 69.1727 148.743V148.743ZM65.9728 145.098C67.1118 144.516 68.0449 143.932 68.0465 143.8C68.0482 143.668 67.007 140.916 65.7329 137.686L63.4164 131.812H62.0736C60.2898 131.812 58.5781 130.868 57.7078 129.404C57.333 128.774 57.0966 128.054 57.1826 127.804C57.4424 127.051 58.2788 127.294 58.7987 128.273C59.295 129.208 61.0493 130.313 62.0317 130.31C63.0304 130.307 64.9001 129.001 65.4283 127.938C65.8441 127.101 65.9115 126.551 65.7828 125.046C65.636 123.329 65.6645 123.187 66.1564 123.187C66.9011 123.187 67.3136 124.214 67.2989 126.032C67.2846 127.806 66.7422 129.16 65.5662 130.355L64.7475 131.187L67.1304 137.149C68.4409 140.427 69.648 143.111 69.8127 143.112C70.0764 143.113 77.9297 139.333 78.1489 139.099C78.1959 139.048 77.9855 138.464 77.6813 137.801C76.9769 136.264 76.9867 135.908 77.7747 134.393C79.7874 130.524 80.2837 124.065 78.9214 119.47C77.2863 113.954 74.0759 109.891 69.4895 107.533C64.0488 104.735 57.5091 105.11 52.483 108.508C46.0082 112.886 42.5544 121.609 44.0964 129.69C45.1889 135.415 48.8447 140.688 53.414 143.128C54.6727 143.801 56.2849 144.514 56.9967 144.714C58.1612 145.041 58.3655 145.231 59.0351 146.608L59.7793 148.138L61.8407 147.148C62.9744 146.603 64.8339 145.681 65.9728 145.098V145.098ZM39.0528 107.987C36.4081 105.612 35.8093 104.701 36.6556 104.34C37.1498 104.129 37.1708 104.144 40.352 106.963C42.0979 108.51 42.6636 109.181 42.6048 109.636C42.4622 110.741 41.754 110.412 39.0528 107.987V107.987ZM50.7555 101.997C50.155 101.115 47.9721 95.1572 48.1065 94.7675C48.1878 94.5317 48.4749 94.3388 48.7446 94.3388C49.1142 94.3388 49.5842 95.2171 50.6528 97.9052C51.4326 99.8668 52.0011 101.674 51.916 101.92C51.7283 102.465 51.1018 102.506 50.7555 101.997V101.997ZM62.504 95.6677C62.6582 91.5743 62.8409 90.8357 63.6169 91.1672C63.9512 91.3099 64.0298 91.813 64.0067 93.6603C63.9907 94.9331 63.9005 96.7775 63.8063 97.7589C63.6532 99.3522 63.566 99.5542 62.9926 99.6444L62.3504 99.7454L62.504 95.6677Z" fill="url(#paint1_linear_3_204)"/>
</g>
<g filter="url(#filter0_d_3_204)">
<path d="M93.9843 336.947C93.9843 338.846 92.4216 340.333 90.6507 340.333H87.317L87.39 357.229C87.39 357.514 87.3691 357.798 87.3379 358.083V359.781C87.3379 362.112 85.4731 364 83.1709 364H81.504C81.3894 364 81.2749 364 81.1603 363.989C81.0144 364 80.8686 364 80.7227 364H77.337H74.8368C72.5345 364 70.6698 362.112 70.6698 359.781V357.25V350.5C70.6698 348.633 69.1801 347.125 67.3362 347.125H60.6689C58.825 347.125 57.3353 348.633 57.3353 350.5V357.25V359.781C57.3353 362.112 55.4706 364 53.1683 364H50.6681H47.3449C47.1886 364 47.0324 363.989 46.8761 363.979C46.7511 363.989 46.6261 364 46.5011 364H44.8343C42.532 364 40.6672 362.112 40.6672 359.781V347.969C40.6672 347.874 40.6672 347.768 40.6777 347.673V340.333H37.3336C35.4585 340.333 34 338.856 34 336.947C34 335.998 34.3125 335.154 35.0418 334.416L61.7524 310.844C62.4816 310.105 63.315 310 64.0442 310C64.7735 310 65.6069 310.211 66.2319 310.738L92.8383 334.416C93.6717 335.154 94.0884 335.998 93.9843 336.947Z" fill="#7B2CBF"/>
</g>
<g filter="url(#filter1_d_3_204)">
<path d="M65.85 481.5C65.85 488.957 59.8514 495 52.45 495C45.0486 495 39.05 488.957 39.05 481.5C39.05 474.043 45.0486 468 52.45 468C59.8514 468 65.85 474.043 65.85 481.5ZM29 518.868C29 508.479 37.3541 500.062 47.6658 500.062H57.2342C67.5459 500.062 75.9 508.479 75.9 518.868C75.9 520.597 74.5077 522 72.7908 522H32.1092C30.3923 522 29 520.597 29 518.868ZM92.7861 522H78.3497C78.915 521.009 79.25 519.859 79.25 518.625V517.781C79.25 511.379 76.413 505.631 71.9428 501.771C72.1941 501.761 72.4348 501.75 72.6861 501.75H79.1139C88.4416 501.75 96 509.365 96 518.762C96 520.555 94.5553 522 92.7861 522ZM74.225 495C70.9797 495 68.0484 493.671 65.9233 491.53C67.9856 488.725 69.2 485.255 69.2 481.5C69.2 478.673 68.5091 476.005 67.2842 473.664C69.2314 472.229 71.6287 471.375 74.225 471.375C80.7052 471.375 85.95 476.659 85.95 483.188C85.95 489.716 80.7052 495 74.225 495Z" fill="#7B2CBF"/>
</g>
<g filter="url(#filter2_d_3_204)">
<path d="M91.8364 801.504C92.2277 802.574 91.8976 803.768 91.054 804.531L85.7601 809.38C85.8946 810.402 85.9679 811.448 85.9679 812.506C85.9679 813.565 85.8946 814.611 85.7601 815.632L91.054 820.481C91.8976 821.244 92.2277 822.438 91.8364 823.509C91.2985 824.973 90.6505 826.376 89.9047 827.73L89.3301 828.727C88.5232 830.081 87.6185 831.361 86.6281 832.567C85.9068 833.453 84.7086 833.748 83.6328 833.404L76.8228 831.225C75.1845 832.493 73.3751 833.551 71.4434 834.351L69.9151 841.379C69.6706 842.499 68.8148 843.385 67.69 843.569C66.0028 843.852 64.2667 844 62.4939 844C60.7211 844 58.985 843.852 57.2978 843.569C56.173 843.385 55.3172 842.499 55.0727 841.379L53.5444 834.351C51.6127 833.551 49.8032 832.493 48.1649 831.225L41.3672 833.416C40.2914 833.76 39.0932 833.453 38.3719 832.579C37.3815 831.373 36.4768 830.093 35.6699 828.739L35.0953 827.742C34.3495 826.389 33.7015 824.986 33.1636 823.521C32.7723 822.45 33.1024 821.256 33.946 820.493L39.2399 815.644C39.1054 814.611 39.0321 813.565 39.0321 812.506C39.0321 811.448 39.1054 810.402 39.2399 809.38L33.946 804.531C33.1024 803.768 32.7723 802.574 33.1636 801.504C33.7015 800.039 34.3495 798.636 35.0953 797.282L35.6699 796.285C36.4768 794.932 37.3815 793.652 38.3719 792.446C39.0932 791.559 40.2914 791.264 41.3672 791.609L48.1772 793.787C49.8155 792.519 51.6249 791.461 53.5566 790.661L55.0849 783.634C55.3294 782.514 56.1852 781.628 57.31 781.443C58.9972 781.148 60.7333 781 62.5061 781C64.2789 781 66.015 781.148 67.7022 781.431C68.827 781.615 69.6828 782.501 69.9273 783.621L71.4556 790.649C73.3873 791.449 75.1968 792.507 76.8351 793.775L83.645 791.596C84.7209 791.252 85.919 791.559 86.6404 792.433C87.6307 793.639 88.5354 794.919 89.3423 796.273L89.917 797.27C90.6627 798.624 91.3107 800.027 91.8487 801.491L91.8364 801.504ZM62.5061 822.352C67.91 822.352 72.287 817.946 72.287 812.506C72.287 807.066 67.91 802.66 62.5061 802.66C57.1022 802.66 52.7253 807.066 52.7253 812.506C52.7253 817.946 57.1022 822.352 62.5061 822.352Z" fill="#7B2CBF"/>
</g>
<path d="M49.4768 661.062C60.7876 661.062 69.9525 653.213 69.9525 643.531C69.9525 633.849 60.7876 626 49.4768 626C38.1659 626 29.0011 633.849 29.0011 643.531C29.0011 647.376 30.4482 650.932 32.8993 653.831C32.5548 654.767 32.0429 655.594 31.5015 656.291C31.029 656.909 30.5466 657.387 30.1922 657.716C30.015 657.875 29.8674 658.004 29.7689 658.084C29.7197 658.124 29.6803 658.154 29.6606 658.164L29.6409 658.184C29.0995 658.592 28.8633 659.309 29.0798 659.957C29.2964 660.604 29.8969 661.062 30.5761 661.062C32.7221 661.062 34.8878 660.505 36.6893 659.817C37.595 659.469 38.4416 659.08 39.1799 658.682C42.202 660.196 45.7163 661.062 49.4768 661.062ZM73.1026 643.531C73.1026 654.717 63.3471 663.144 51.7901 664.15C54.1822 671.561 62.1166 677 71.5275 677C75.288 677 78.8023 676.133 81.8343 674.619C82.5726 675.018 83.4093 675.406 84.315 675.755C86.1164 676.442 88.2821 677 90.4282 677C91.1074 677 91.7177 676.552 91.9245 675.894C92.1312 675.237 91.9048 674.52 91.3535 674.111L91.3338 674.091C91.3141 674.071 91.2747 674.052 91.2255 674.012C91.1271 673.932 90.9794 673.812 90.8022 673.643C90.4478 673.314 89.9655 672.836 89.493 672.219C88.9515 671.521 88.4396 670.685 88.0951 669.758C90.5463 666.87 91.9934 663.314 91.9934 659.459C91.9934 650.215 83.6357 642.635 73.0337 641.977C73.073 642.485 73.0927 643.003 73.0927 643.521L73.1026 643.531Z" fill="#7B2CBF"/>
<defs>
<filter id="filter0_d_3_204" x="29" y="309" width="70" height="64" filterUnits="userSpaceOnUse" color-interpolation-filters="sRGB">
<feFlood flood-opacity="0" result="BackgroundImageFix"/>
<feColorMatrix in="SourceAlpha" type="matrix" values="0 0 0 0 0 0 0 0 0 0 0 0 0 0 0 0 0 0 127 0" result="hardAlpha"/>
<feOffset dy="4"/>
<feGaussianBlur stdDeviation="2.5"/>
<feComposite in2="hardAlpha" operator="out"/>
<feColorMatrix type="matrix" values="0 0 0 0 0 0 0 0 0 0 0 0 0 0 0 0 0 0 0.25 0"/>
<feBlend mode="normal" in2="BackgroundImageFix" result="effect1_dropShadow_3_204"/>
<feBlend mode="normal" in="SourceGraphic" in2="effect1_dropShadow_3_204" result="shape"/>
</filter>
<filter id="filter1_d_3_204" x="25" y="468" width="75" height="62" filterUnits="userSpaceOnUse" color-interpolation-filters="sRGB">
<feFlood flood-opacity="0" result="BackgroundImageFix"/>
<feColorMatrix in="SourceAlpha" type="matrix" values="0 0 0 0 0 0 0 0 0 0 0 0 0 0 0 0 0 0 127 0" result="hardAlpha"/>
<feOffset dy="4"/>
<feGaussianBlur stdDeviation="2"/>
<feComposite in2="hardAlpha" operator="out"/>
<feColorMatrix type="matrix" values="0 0 0 0 0 0 0 0 0 0 0 0 0 0 0 0 0 0 0.25 0"/>
<feBlend mode="normal" in2="BackgroundImageFix" result="effect1_dropShadow_3_204"/>
<feBlend mode="normal" in="SourceGraphic" in2="effect1_dropShadow_3_204" result="shape"/>
</filter>
<filter id="filter2_d_3_204" x="29" y="781" width="67" height="71" filterUnits="userSpaceOnUse" color-interpolation-filters="sRGB">
<feFlood flood-opacity="0" result="BackgroundImageFix"/>
<feColorMatrix in="SourceAlpha" type="matrix" values="0 0 0 0 0 0 0 0 0 0 0 0 0 0 0 0 0 0 127 0" result="hardAlpha"/>
<feOffset dy="4"/>
<feGaussianBlur stdDeviation="2"/>
<feComposite in2="hardAlpha" operator="out"/>
<feColorMatrix type="matrix" values="0 0 0 0 0 0 0 0 0 0 0 0 0 0 0 0 0 0 0.25 0"/>
<feBlend mode="normal" in2="BackgroundImageFix" result="effect1_dropShadow_3_204"/>
<feBlend mode="normal" in="SourceGraphic" in2="effect1_dropShadow_3_204" result="shape"/>
</filter>
<linearGradient id="paint0_linear_3_204" x1="36.8307" y1="91.3374" x2="80.6735" y2="159.413" gradientUnits="userSpaceOnUse">
<stop stop-color="#3C096C"/>
<stop offset="1" stop-color="#9D4EDD" stop-opacity="0.540984"/>
</linearGradient>
<linearGradient id="paint1_linear_3_204" x1="36.8307" y1="91.3374" x2="80.6735" y2="159.413" gradientUnits="userSpaceOnUse">
<stop stop-color="#3C096C"/>
<stop offset="1" stop-color="#9D4EDD" stop-opacity="0.540984"/>
</linearGradient>
<clipPath id="clip0_3_204">
<rect width="49.3558" height="69.4327" fill="white" transform="translate(34.0577 90.3654)"/>
</clipPath>
<clipPath id="clip1_3_204">
<rect width="49.3558" height="69.4327" fill="white" transform="translate(34.0577 90.3654)"/>
</clipPath>
</defs>
</svg>
