<svg width="253" height="215" viewBox="0 0 253 215" fill="none" xmlns="http://www.w3.org/2000/svg">
<g clip-path="url(#clip0_3_112)">
<path d="M243.894 175.344H9.10643C4.08523 175.344 0 171.259 0 166.238V137.979H253V166.238C253 171.259 248.915 175.344 243.894 175.344Z" fill="#E6E6E6"/>
<path d="M156.887 170.617H97.0133V213.384H156.887V170.617Z" fill="#E6E6E6"/>
<path d="M160.488 207.982H93.4119V213.384H160.488V207.982Z" fill="#E6E6E6"/>
<path d="M252.775 149.909H0V6.24929C0 2.8035 2.8035 0 6.24929 0H246.526C249.971 0 252.775 2.8035 252.775 6.24929V149.909Z" fill="#3F3D56"/>
<path d="M246.697 6.52757H5.85236V142.031H246.697V6.52757Z" fill="white"/>
<path d="M52.4948 87.2912C54.3382 85.768 56.6183 85.4845 57.5875 86.6578C58.5566 87.8311 57.8478 90.0166 56.0036 91.5401C55.2752 92.1587 54.4093 92.594 53.4783 92.8094L45.5863 99.1645L42.683 95.3974L50.7713 89.5324C51.1586 88.6584 51.7496 87.8899 52.4948 87.2912H52.4948Z" fill="#FFB6B6"/>
<path d="M6.88016 101.63C6.87616 101.349 6.87879 98.8974 8.69374 97.3479C10.7786 95.5679 13.7205 96.2884 14.7523 96.5411C17.1359 97.1248 17.3314 98.1473 19.5698 99.1979C23.7576 101.163 18.5104 100.157 21.0023 99.5271C21.8649 99.3089 34.2739 98.4483 37.3628 96.5472C43.3702 92.8498 47.4634 90.6076 47.4634 90.6076L50.1393 95.9593C50.1393 95.9593 46.27 101.339 40.8243 105.325C35.2383 109.414 32.4453 111.458 28.2007 112.248C27.8352 112.316 18.8454 113.851 11.6048 108.441C9.95331 107.207 6.92731 104.946 6.88015 101.63L6.88016 101.63Z" fill="#7B2CBF"/>
<path d="M15.1807 88.0195C20.3289 88.0195 24.5023 83.8461 24.5023 78.6979C24.5023 73.5498 20.3289 69.3764 15.1807 69.3764C10.0326 69.3764 5.85919 73.5498 5.85919 78.6979C5.85919 83.8461 10.0326 88.0195 15.1807 88.0195Z" fill="#FFB6B6"/>
<path d="M88.1836 141.324L78.5837 131.497L73.6282 136.666L80.7805 146.088L87.8748 146.9L88.1836 141.324Z" fill="#FFB6B6"/>
<path d="M33.3677 122.897C33.9292 122.943 35.7136 123.301 37.4191 122.362C38.583 121.722 39.18 120.77 39.3816 120.467C41.8829 116.71 51.4834 110.852 60.0996 110.492C62.0509 110.41 63.3352 110.636 64.5026 111.245C66.1578 112.107 66.8187 113.343 68.9192 116.239C70.0682 117.823 71.3395 119.315 72.5024 120.888C79.3102 130.101 81.891 130.824 81.6273 133.778C81.3346 137.055 77.8003 140.164 75.4513 139.805C74.4893 139.658 74.1168 138.989 72.8315 137.635C69.063 133.665 67.5039 134.398 64.8209 131.357C61.6884 127.806 62.0985 124.862 60.4642 124.749C58.9486 124.643 58.3046 127.155 55.069 130.491C53.5885 132.018 52.5342 132.718 49.3222 134.946C36.8142 143.624 36.6146 144.233 34.0903 144.926C32.9859 145.228 25.1473 147.377 22.355 143.957C17.9853 138.606 28.3083 122.476 33.3677 122.897V122.897Z" fill="#2F2E41"/>
<path d="M85.2487 143.544C85.9547 143.227 86.7803 142.857 87.0459 142.004C87.2256 141.427 87.1221 140.716 86.7506 140.225C86.322 139.658 85.6876 139.583 85.7132 139.482C85.7523 139.33 87.2525 139.389 88.8994 139.972C89.2101 140.081 90.618 140.596 92.4089 141.994C93.8438 143.114 93.6507 143.339 94.5504 143.985C97.3124 145.967 99.9029 144.405 101.397 146.264C101.974 146.982 102.22 148.001 101.977 148.824C101.49 150.479 99.1195 151.048 97.8239 151.342C94.7038 152.05 92.3421 151.472 89.8761 151.056C81.4896 149.643 76.7775 150.93 76.1468 148.987C76.0275 148.62 76.2214 148.651 76.868 145.953C77.5063 143.289 77.4853 142.558 78.0289 142.344C78.8471 142.023 79.3964 143.484 81.4576 143.984C83.2841 144.426 84.7912 143.75 85.2487 143.544H85.2487Z" fill="#2F2E41"/>
<path d="M71.1165 173.47L68.6911 159.949L61.6879 161.443L62.3153 173.256L67.7299 177.911L71.1165 173.47Z" fill="#FFB6B6"/>
<path d="M36.1066 127.442C36.545 127.795 37.8207 129.093 39.7589 129.275C41.0816 129.398 42.1102 128.946 42.4471 128.808C46.6263 127.104 57.8598 127.648 65.1917 132.188C66.8521 133.216 67.7879 134.125 68.4121 135.284C69.2973 136.927 69.15 138.321 69.2622 141.896C69.3236 143.852 69.5378 145.8 69.6163 147.755C70.0761 159.201 71.8055 161.249 69.9287 163.545C67.8463 166.092 63.1761 166.68 61.4339 165.064C60.7204 164.402 60.7878 163.64 60.4847 161.797C59.596 156.396 57.894 156.127 57.3817 152.104C56.7835 147.407 58.776 145.202 57.4876 144.19C56.2927 143.251 54.3495 144.968 49.7987 145.912C47.7164 146.344 46.4508 146.331 42.5418 146.371C27.3193 146.528 26.8117 146.92 24.3344 146.075C23.2505 145.706 15.5577 143.082 15.1676 138.684C14.5572 131.802 32.1562 124.253 36.1066 127.442H36.1066Z" fill="#2F2E41"/>
<path d="M67.4411 173.66C68.2033 173.794 69.0946 173.951 69.793 173.394C70.2656 173.018 70.5794 172.371 70.548 171.756C70.5117 171.046 70.0288 170.628 70.1063 170.56C70.2245 170.455 71.4323 171.347 72.4681 172.753C72.6635 173.019 73.5396 174.235 74.2364 176.398C74.7946 178.13 74.5087 178.208 74.8906 179.247C76.0626 182.439 79.0835 182.601 79.2761 184.978C79.3504 185.896 78.9818 186.877 78.3183 187.422C76.986 188.518 74.7048 187.658 73.4678 187.173C70.4885 186.007 68.8588 184.203 67.0517 182.474C60.9058 176.595 56.2841 175.014 56.8532 173.053C56.9609 172.681 57.1038 172.816 59.1542 170.946C61.1779 169.101 61.5713 168.484 62.1408 168.613C62.9981 168.806 62.6326 170.323 64.0575 171.894C65.3201 173.286 66.9472 173.573 67.4411 173.66Z" fill="#2F2E41"/>
<path d="M16.4516 80.4799C16.8145 79.1818 16.3587 78.7088 16.8233 78.1261C16.8233 78.126 17.0102 77.8916 18.6816 77.2588C18.1885 74.3977 18.5577 73.9139 18.5577 73.9139C18.9832 73.3563 19.8357 73.2215 20.416 73.2944C21.6434 73.4487 21.8606 74.5582 22.646 74.5333C23.7309 74.4989 25.0321 72.3273 24.6282 70.445C24.2987 68.9097 22.8782 67.7694 22.5221 67.9673C22.169 68.1635 20.898 67.2984 20.416 67.4717C20.0868 67.5901 18.5374 67.4326 18.186 67.5956C17.8024 67.7736 16.7036 68.8819 16.5985 68.7423C15.8685 67.7719 15.884 67.4331 15.4605 67.224C14.71 66.8534 13.8941 67.5383 12.4872 68.2151C9.5925 69.6074 8.74488 68.7769 7.40781 69.9495C6.73239 70.5418 6.3702 71.6739 5.67338 73.9139C4.69889 77.0465 4.21165 78.6128 4.68228 80.1083C5.16224 81.6334 5.86904 81.3015 6.91226 83.4532C8.07353 85.8485 7.67329 87.2408 8.77058 87.7893C9.61864 88.2133 10.9815 87.9434 11.4961 87.1699C12.3771 85.8454 10.1 84.0538 10.8767 81.9666C11.3534 80.6853 12.8242 79.7139 13.7261 79.9844C14.7459 80.2903 14.821 82.1188 15.4605 82.0905C16.0082 82.0662 16.3884 80.7061 16.4516 80.4799H16.4516Z" fill="#2F2E41"/>
<path d="M9.38999 89.3998C11.2975 87.261 19.0673 89.4748 19.7966 92.8687C20.0965 94.2647 18.9892 94.8541 19.301 96.4614C19.7571 98.8124 22.3396 98.6521 24.2565 101.045C26.9779 104.443 24.1743 107.764 27.2298 113.434C27.8827 114.646 28.433 115.667 29.5837 116.655C32.2241 118.923 34.6814 118.145 36.0258 120.248C37.0312 121.82 36.6181 123.758 36.5214 124.212C36.1246 126.074 35.0492 126.527 34.2914 128.053C33.0306 130.591 34.4581 132.454 34.5392 135.486C34.6406 139.28 32.6245 144.539 28.5926 146.264C24.0629 148.203 18.5997 144.992 15.956 141.804C14.3785 139.902 13.9206 138.147 13.2305 135.982C10.1462 126.302 8.40369 127.177 6.04502 119.505C3.34863 110.733 2.81855 100.457 6.04502 97.2048C6.47268 96.7737 7.64959 95.7775 8.39889 93.9837C9.40717 91.5698 8.5361 90.3572 9.38999 89.3998L9.38999 89.3998Z" fill="#7B2CBF"/>
<path d="M37.5756 139.188C39.0545 141.067 39.2837 143.353 38.0877 144.294C36.8917 145.235 34.7237 144.475 33.2445 142.595C32.6433 141.852 32.2288 140.976 32.0356 140.04L25.8699 131.999L29.0558 129.569L35.376 137.412C36.2405 137.82 36.9948 138.429 37.5756 139.188H37.5756Z" fill="#FFB6B6"/>
<path d="M14.9946 97.5509C15.269 97.4896 17.6695 96.992 19.5567 98.4526C21.7246 100.13 21.6196 103.157 21.5828 104.219C21.4977 106.672 20.5366 107.072 19.9649 109.477C18.8952 113.978 20.9323 118.161 22.0578 120.472C22.4474 121.272 23.699 123.719 26.1904 126.355C31.0358 131.482 35.3592 134.179 35.3592 134.179L30.7147 138.308C30.7147 138.308 23.3164 136.053 18.3034 131.535C13.1612 126.901 5.25342 110.504 3.61411 106.51C3.47294 106.166 5.47268 111.758 9.29091 103.566C10.1618 101.697 11.7576 98.2738 14.9946 97.5509H14.9946Z" fill="#7B2CBF"/>
<path d="M133.867 93.7049L128.322 91.078C130.596 94.2522 132.556 99.2097 133.605 103.154C135.382 99.4799 138.246 94.9837 141.081 92.2979L135.22 93.8057C138.831 76.1059 152.415 63.3991 167.97 63.3991L168.19 62.7598C151.942 62.7598 137.555 75.2904 133.867 93.7049Z" fill="#3F3D56"/>
<path d="M159.391 120.674H124.352C122.866 120.674 121.657 119.465 121.657 117.979C121.657 116.492 122.866 115.283 124.352 115.283H159.391C160.877 115.283 162.086 116.492 162.086 117.979C162.086 119.465 160.877 120.674 159.391 120.674Z" fill="#7B2CBF"/>
<path d="M206.014 120.674H170.976C169.489 120.674 168.28 119.465 168.28 117.979C168.28 116.492 169.489 115.283 170.976 115.283H206.014C207.5 115.283 208.709 116.492 208.709 117.979C208.709 119.465 207.5 120.674 206.014 120.674Z" fill="#E6E6E6"/>
<path d="M185.272 47.3512H151.212C150.354 47.3512 149.655 46.6525 149.655 45.7939C149.655 44.9352 150.354 44.2369 151.212 44.2369H185.272C186.13 44.2369 186.829 44.9352 186.829 45.7939C186.829 46.6525 186.13 47.3512 185.272 47.3512V47.3512Z" fill="#3F3D56"/>
<path d="M203.548 63.9652H132.936C132.077 63.9652 131.379 63.2665 131.379 62.4079C131.379 61.5492 132.077 60.8509 132.936 60.8509H203.548C204.407 60.8509 205.105 61.5492 205.105 62.4079C205.105 63.2665 204.407 63.9652 203.548 63.9652Z" fill="#3F3D56"/>
<path d="M15.3098 213.782C15.3098 214.062 15.5345 214.287 15.8142 214.287H237.186C237.465 214.287 237.69 214.062 237.69 213.782C237.69 213.503 237.465 213.278 237.186 213.278H15.8142C15.5345 213.278 15.3098 213.503 15.3098 213.782Z" fill="#3F3D56"/>
<path d="M69.6675 94.2199C69.6074 94.2199 69.5476 94.2177 69.4873 94.214C65.9401 93.9862 53.8028 92.2688 46.5569 79.7404C45.9598 78.7089 46.0775 77.3975 46.8495 76.4775L60.2685 60.4892C60.8173 59.8354 61.665 59.4586 62.5235 59.469C63.1169 59.4832 64.5218 59.633 64.7947 60.7161C66.4067 67.1147 73.2136 74.6382 81.3999 75.6354C82.2297 75.7363 82.8958 76.4765 83.1817 77.6155C83.4048 78.5022 83.1987 79.4162 82.616 80.1231L71.8662 93.1768C71.3201 93.8397 70.5188 94.2199 69.6675 94.2199V94.2199ZM62.472 60.1122C61.8163 60.1122 61.1784 60.406 60.7615 60.9027L47.3426 76.891C46.7437 77.6045 46.652 78.62 47.1138 79.4181C54.2 91.6702 66.062 93.349 69.5287 93.5717C70.2366 93.6192 70.9164 93.3175 71.3695 92.7677L82.1194 79.714C82.5708 79.1664 82.7304 78.4588 82.5577 77.7723C82.389 77.1002 81.9757 76.3537 81.322 76.2739C72.8652 75.2439 65.8347 67.4779 64.1707 60.8732C64.0359 60.3384 63.2245 60.1295 62.5102 60.1125C62.4974 60.1122 62.4847 60.1122 62.472 60.1122H62.472Z" fill="#3F3D56"/>
<path d="M54.6889 80.2666L64.3635 70.4023C65.0248 69.728 63.9887 68.6903 63.3266 69.3654L53.652 79.2297C52.9907 79.904 54.0268 80.9418 54.6889 80.2666Z" fill="#E6E6E6"/>
<path d="M60.5281 83.0457C63.1982 80.6525 65.5184 77.8816 67.4184 74.841C67.9199 74.0384 66.6517 73.3015 66.1522 74.1009C64.3153 77.0405 62.0722 79.6954 59.4912 82.0088C58.787 82.64 59.8269 83.6743 60.5281 83.0457H60.5281Z" fill="#E6E6E6"/>
<path d="M65.7908 86.3734C68.2218 83.6805 70.2911 80.6751 71.9203 77.4331C72.3429 76.5921 71.0783 75.8487 70.654 76.693C69.08 79.8253 67.1032 82.7341 64.7539 85.3365C64.1229 86.0355 65.1568 87.0757 65.7908 86.3734H65.7908Z" fill="#E6E6E6"/>
<path d="M61.6459 68.6146C67.0328 68.6146 71.3998 64.3397 71.3998 59.0662C71.3998 53.7928 67.0328 49.5179 61.6459 49.5179C56.259 49.5179 51.892 53.7928 51.892 59.0662C51.892 64.3397 56.259 68.6146 61.6459 68.6146Z" fill="#7B2CBF"/>
<path d="M66.7211 63.5956C65.221 59.9074 63.7209 56.2192 62.2208 52.531C62.0136 52.0216 61.3646 52.0035 61.1624 52.531C59.6802 56.3978 58.7116 60.4326 58.246 64.5465C58.1667 65.2472 59.2649 65.2416 59.3436 64.5465C59.5258 62.9366 59.7963 61.3388 60.1436 59.758C61.3797 59.8229 62.626 59.6842 63.8188 59.354C64.4335 60.8651 65.0481 62.3762 65.6627 63.8874C65.9254 64.5331 66.9876 64.2507 66.7211 63.5956ZM60.3925 58.6729C60.7622 57.1596 61.2054 55.6643 61.7197 54.193L63.402 58.329C62.4166 58.5876 61.4089 58.7027 60.3925 58.6729Z" fill="white"/>
</g>
<defs>
<clipPath id="clip0_3_112">
<rect width="253" height="214.287" fill="white"/>
</clipPath>
</defs>
</svg>
