<svg width="87" height="87" viewBox="0 0 87 87" fill="none" xmlns="http://www.w3.org/2000/svg">
<circle cx="43.5" cy="43.5" r="43.5" fill="#FCFCFF"/>
<g clip-path="url(#clip0_14_341)">
<path d="M48.6609 76.8396C45.74 76.0775 43.5634 74.6919 42.1406 72.689C41.2779 71.4745 39.427 67.6779 39.4133 67.0948C39.4069 66.8312 39.1861 66.1642 38.922 65.6126C38.5157 64.764 38.1511 64.5071 36.5519 63.9428C33.8569 62.9917 31.382 61.3556 29.2466 59.1134C26.7865 56.5302 25.2056 53.814 24.1808 50.4094C20.6047 38.5287 27.0206 25.8394 38.1996 22.6831C41.2927 21.8098 46.1799 22.0238 49.1772 23.1638C55.3653 25.5175 60.0962 31.1717 61.7225 38.1578C62.4045 41.0872 62.2808 46.2163 61.4512 49.4026C61.0744 50.8497 60.5214 52.4747 60.2221 53.0135L59.6781 53.9934L61.1076 57.6278L62.537 61.2622L62.5354 64.385C62.5337 67.3093 62.4763 67.6444 61.6299 69.6581C60.6207 72.0588 58.5081 74.5604 56.5516 75.6714C54.3374 76.9287 50.9337 77.4326 48.6608 76.8396H48.6609ZM53.1052 75.055C55.0767 74.5899 56.4442 73.7729 57.9489 72.1612C59.199 70.8221 60.2275 69.1478 59.8051 69.1393C59.4165 69.1315 48.2591 74.6447 48.2505 74.8488C48.2291 75.3599 51.2661 75.4889 53.1052 75.055V75.055ZM53.3745 70.442C57.2382 68.539 60.5498 66.8497 60.7335 66.688C61.1023 66.3633 61.2018 63.4928 60.8441 63.4928C60.6305 63.4928 44.3695 71.3945 43.8555 71.748C43.5709 71.9439 45.5373 73.8909 46.0266 73.8976C46.2041 73.8999 49.5107 72.345 53.3745 70.442V70.442ZM50.1727 66.7431C54.1809 64.7686 58.2153 62.7663 59.1382 62.2935L60.8161 61.4339L60.3934 60.3071C60.161 59.6874 59.8769 59.0756 59.7622 58.9475C59.5659 58.7284 42.2435 67.1013 41.7179 67.6693C41.4496 67.9593 42.2936 70.3331 42.665 70.3331C42.7861 70.3331 46.1645 68.7176 50.1727 66.7431V66.7431ZM46.9728 63.0984C48.1118 62.516 49.0449 61.9316 49.0465 61.7996C49.0482 61.6676 48.007 58.9164 46.7329 55.6858L44.4164 49.812H43.0736C41.2898 49.812 39.5781 48.868 38.7078 47.4041C38.333 46.7737 38.0966 46.0538 38.1826 45.8044C38.4424 45.0509 39.2788 45.2935 39.7987 46.2732C40.295 47.2082 42.0493 48.3135 43.0317 48.3101C44.0304 48.307 45.9001 47.0008 46.4283 45.9379C46.8441 45.1013 46.9115 44.5514 46.7828 43.046C46.636 41.3286 46.6645 41.1872 47.1564 41.1872C47.9011 41.1872 48.3136 42.2145 48.2989 44.0322C48.2846 45.8063 47.7422 47.1595 46.5662 48.3551L45.7475 49.1874L48.1304 55.1485C49.4409 58.4272 50.648 61.1105 50.8127 61.1116C51.0764 61.1132 58.9297 57.3328 59.1489 57.0987C59.1959 57.0485 58.9855 56.4645 58.6813 55.8008C57.9769 54.264 57.9867 53.9077 58.7747 52.393C60.7874 48.5237 61.2837 42.0649 59.9214 37.4696C58.2863 31.9545 55.0759 27.8915 50.4895 25.5328C45.0488 22.7348 38.5091 23.11 33.483 26.5083C27.0082 30.8862 23.5544 39.6094 25.0964 47.6902C26.1889 53.4154 29.8447 58.6879 34.414 61.1283C35.6727 61.8005 37.2849 62.514 37.9967 62.7139C39.1612 63.0408 39.3655 63.2305 40.0351 64.6075L40.7793 66.1379L42.8407 65.1476C43.9744 64.6029 45.8339 63.6807 46.9728 63.0984V63.0984ZM20.0528 25.9866C17.4081 23.6122 16.8093 22.7013 17.6556 22.3398C18.1498 22.1287 18.1708 22.1435 21.352 24.9625C23.0979 26.5096 23.6636 27.181 23.6048 27.6362C23.4622 28.7407 22.754 28.4118 20.0528 25.9866V25.9866ZM31.7555 19.997C31.155 19.1145 28.9721 13.1572 29.1065 12.7675C29.1878 12.5317 29.4749 12.3388 29.7446 12.3388C30.1142 12.3388 30.5842 13.2171 31.6528 15.9052C32.4326 17.8668 33.0011 19.6735 32.916 19.9202C32.7283 20.4645 32.1018 20.506 31.7555 19.997V19.997ZM43.504 13.6677C43.6582 9.57428 43.8409 8.8357 44.6169 9.16716C44.9512 9.30993 45.0298 9.81304 45.0067 11.6603C44.9907 12.9331 44.9005 14.7775 44.8063 15.7589C44.6532 17.3522 44.566 17.5542 43.9926 17.6444L43.3504 17.7454L43.504 13.6677Z" fill="url(#paint0_linear_14_341)"/>
</g>
<defs>
<linearGradient id="paint0_linear_14_341" x1="17.8307" y1="9.33738" x2="61.6735" y2="77.4133" gradientUnits="userSpaceOnUse">
<stop stop-color="#3C096C"/>
<stop offset="1" stop-color="#9D4EDD" stop-opacity="0.540984"/>
</linearGradient>
<clipPath id="clip0_14_341">
<rect width="49.3558" height="69.4327" fill="white" transform="translate(15.0577 8.36539)"/>
</clipPath>
</defs>
</svg>
