<svg width="44" height="51" viewBox="0 0 44 51" fill="none" xmlns="http://www.w3.org/2000/svg">
<path d="M22.0563 0.960175C20.3242 0.960175 18.9248 2.34946 18.9248 4.06907V5.93441C11.7811 7.37228 6.39891 13.6484 6.39891 21.168V22.9945C6.39891 27.5607 4.70595 31.9714 1.65276 35.3912L0.928601 36.1976C0.106587 37.1108 -0.0891311 38.4224 0.409949 39.5397C0.909029 40.6569 2.03441 41.3759 3.26743 41.3759H40.8452C42.0782 41.3759 43.1938 40.6569 43.7027 39.5397C44.2116 38.4224 44.0061 37.1108 43.184 36.1976L42.4599 35.3912C39.4067 31.9714 37.7137 27.5704 37.7137 22.9945V21.168C37.7137 13.6484 32.3315 7.37228 25.1878 5.93441V4.06907C25.1878 2.34946 23.7884 0.960175 22.0563 0.960175ZM26.4893 48.8858C27.6636 47.72 28.3193 46.1364 28.3193 44.4848H22.0563H15.7934C15.7934 46.1364 16.449 47.72 17.6233 48.8858C18.7976 50.0516 20.3927 50.7026 22.0563 50.7026C23.7199 50.7026 25.315 50.0516 26.4893 48.8858Z" fill="#7B2CBF"/>
</svg>
