<svg width="67" height="71" viewBox="0 0 67 71" fill="none" xmlns="http://www.w3.org/2000/svg">
<g filter="url(#filter0_d_14_349)">
<path d="M62.8364 20.5036C63.2277 21.5743 62.8976 22.7681 62.054 23.5312L56.7601 28.3802C56.8946 29.4016 56.9679 30.4477 56.9679 31.5062C56.9679 32.5646 56.8946 33.6107 56.7601 34.6322L62.054 39.4811C62.8976 40.2442 63.2277 41.438 62.8364 42.5087C62.2985 43.9732 61.6505 45.3762 60.9047 46.73L60.3301 47.7269C59.5232 49.0807 58.6185 50.3606 57.6281 51.5667C56.9068 52.4528 55.7086 52.7482 54.6328 52.4036L47.8228 50.2252C46.1845 51.4929 44.3751 52.5513 42.4434 53.3512L40.9151 60.3786C40.6706 61.4985 39.8148 62.3846 38.69 62.5693C37.0028 62.8523 35.2667 63 33.4939 63C31.7211 63 29.985 62.8523 28.2978 62.5693C27.173 62.3846 26.3172 61.4985 26.0727 60.3786L24.5444 53.3512C22.6127 52.5513 20.8032 51.4929 19.1649 50.2252L12.3672 52.4159C11.2914 52.7605 10.0932 52.4528 9.37186 51.579C8.38155 50.3729 7.47682 49.093 6.6699 47.7392L6.09527 46.7423C5.34948 45.3886 4.7015 43.9855 4.16356 42.521C3.77232 41.4503 4.10242 40.2565 4.94602 39.4935L10.2399 34.6445C10.1054 33.6107 10.0321 32.5646 10.0321 31.5062C10.0321 30.4477 10.1054 29.4016 10.2399 28.3802L4.94602 23.5312C4.10242 22.7681 3.77232 21.5743 4.16356 20.5036C4.7015 19.0391 5.34948 17.6361 6.09527 16.2823L6.6699 15.2854C7.47682 13.9316 8.38155 12.6517 9.37186 11.4456C10.0932 10.5595 11.2914 10.2641 12.3672 10.6087L19.1772 12.7871C20.8155 11.5194 22.6249 10.461 24.5566 9.66107L26.0849 2.63372C26.3294 1.51377 27.1852 0.627662 28.31 0.443055C29.9972 0.147685 31.7333 0 33.5061 0C35.2789 0 37.015 0.147685 38.7022 0.430748C39.827 0.615355 40.6828 1.50146 40.9273 2.62141L42.4556 9.64876C44.3873 10.4487 46.1968 11.5071 47.8351 12.7748L54.645 10.5964C55.7209 10.2518 56.919 10.5595 57.6404 11.4333C58.6307 12.6394 59.5354 13.9193 60.3423 15.2731L60.917 16.27C61.6627 17.6238 62.3107 19.0268 62.8487 20.4913L62.8364 20.5036ZM33.5061 41.3518C38.91 41.3518 43.287 36.9459 43.287 31.5062C43.287 26.0664 38.91 21.6605 33.5061 21.6605C28.1022 21.6605 23.7253 26.0664 23.7253 31.5062C23.7253 36.9459 28.1022 41.3518 33.5061 41.3518Z" fill="#7B2CBF"/>
</g>
<defs>
<filter id="filter0_d_14_349" x="0" y="0" width="67" height="71" filterUnits="userSpaceOnUse" color-interpolation-filters="sRGB">
<feFlood flood-opacity="0" result="BackgroundImageFix"/>
<feColorMatrix in="SourceAlpha" type="matrix" values="0 0 0 0 0 0 0 0 0 0 0 0 0 0 0 0 0 0 127 0" result="hardAlpha"/>
<feOffset dy="4"/>
<feGaussianBlur stdDeviation="2"/>
<feComposite in2="hardAlpha" operator="out"/>
<feColorMatrix type="matrix" values="0 0 0 0 0 0 0 0 0 0 0 0 0 0 0 0 0 0 0.25 0"/>
<feBlend mode="normal" in2="BackgroundImageFix" result="effect1_dropShadow_14_349"/>
<feBlend mode="normal" in="SourceGraphic" in2="effect1_dropShadow_14_349" result="shape"/>
</filter>
</defs>
</svg>
